<?xml version="1.0"?>
<svg width="168" height="27" xmlns="http://www.w3.org/2000/svg" xmlns:svg="http://www.w3.org/2000/svg">
 <defs>
  <filter color-interpolation-filters="sRGB" filterUnits="userSpaceOnUse" height="1.01" id="filter0_d_2164_2166" width="1" x="31" y="1.27">
   <feFlood flood-opacity="0" result="BackgroundImageFix"/>
   <feColorMatrix in="SourceAlpha" result="hardAlpha" type="matrix" values="0 0 0 0 0 0 0 0 0 0 0 0 0 0 0 0 0 0 127 0"/>
   <feOffset/>
   <feGaussianBlur stdDeviation="0.17"/>
   <feComposite in2="hardAlpha" operator="out"/>
   <feColorMatrix type="matrix" values="0 0 0 0 0.592157 0 0 0 0 0.392157 0 0 0 0 1 0 0 0 1 0"/>
   <feBlend in2="BackgroundImageFix"/>
   <feBlend in="SourceGraphic" in2="effect1_dropShadow_2164_2166"/>
  </filter>
  <filter color-interpolation-filters="sRGB" filterUnits="userSpaceOnUse" height="2.62" id="filter1_d_2164_2166" width="2.58" x="4.39" y="4.31">
   <feFlood flood-opacity="0" result="BackgroundImageFix"/>
   <feColorMatrix in="SourceAlpha" result="hardAlpha" type="matrix" values="0 0 0 0 0 0 0 0 0 0 0 0 0 0 0 0 0 0 127 0"/>
   <feOffset/>
   <feGaussianBlur stdDeviation="0.44"/>
   <feComposite in2="hardAlpha" operator="out"/>
   <feColorMatrix type="matrix" values="0 0 0 0 0.592157 0 0 0 0 0.392157 0 0 0 0 1 0 0 0 1 0"/>
   <feBlend in2="BackgroundImageFix"/>
   <feBlend in="SourceGraphic" in2="effect1_dropShadow_2164_2166"/>
  </filter>
  <filter color-interpolation-filters="sRGB" filterUnits="userSpaceOnUse" height="2.62" id="filter2_d_2164_2166" width="2.58" x="0.21" y="16.68">
   <feFlood flood-opacity="0" result="BackgroundImageFix"/>
   <feColorMatrix in="SourceAlpha" result="hardAlpha" type="matrix" values="0 0 0 0 0 0 0 0 0 0 0 0 0 0 0 0 0 0 127 0"/>
   <feOffset/>
   <feGaussianBlur stdDeviation="0.44"/>
   <feComposite in2="hardAlpha" operator="out"/>
   <feColorMatrix type="matrix" values="0 0 0 0 0.592157 0 0 0 0 0.392157 0 0 0 0 1 0 0 0 1 0"/>
   <feBlend in2="BackgroundImageFix"/>
   <feBlend in="SourceGraphic" in2="effect1_dropShadow_2164_2166"/>
  </filter>
  <filter color-interpolation-filters="sRGB" filterUnits="userSpaceOnUse" height="2.62" id="filter3_d_2164_2166" width="2.58" x="24.25" y="20.07">
   <feFlood flood-opacity="0" result="BackgroundImageFix"/>
   <feColorMatrix in="SourceAlpha" result="hardAlpha" type="matrix" values="0 0 0 0 0 0 0 0 0 0 0 0 0 0 0 0 0 0 127 0"/>
   <feOffset/>
   <feGaussianBlur stdDeviation="0.44"/>
   <feComposite in2="hardAlpha" operator="out"/>
   <feColorMatrix type="matrix" values="0 0 0 0 0.592157 0 0 0 0 0.392157 0 0 0 0 1 0 0 0 1 0"/>
   <feBlend in2="BackgroundImageFix"/>
   <feBlend in="SourceGraphic" in2="effect1_dropShadow_2164_2166"/>
  </filter>
  <filter color-interpolation-filters="sRGB" filterUnits="userSpaceOnUse" height="1.01" id="filter4_d_2164_2166" width="1" x="6.03" y="13.98">
   <feFlood flood-opacity="0" result="BackgroundImageFix"/>
   <feColorMatrix in="SourceAlpha" result="hardAlpha" type="matrix" values="0 0 0 0 0 0 0 0 0 0 0 0 0 0 0 0 0 0 127 0"/>
   <feOffset/>
   <feGaussianBlur stdDeviation="0.17"/>
   <feComposite in2="hardAlpha" operator="out"/>
   <feColorMatrix type="matrix" values="0 0 0 0 0.592157 0 0 0 0 0.392157 0 0 0 0 1 0 0 0 1 0"/>
   <feBlend in2="BackgroundImageFix"/>
   <feBlend in="SourceGraphic" in2="effect1_dropShadow_2164_2166"/>
  </filter>
  <filter color-interpolation-filters="sRGB" filterUnits="userSpaceOnUse" height="1.58" id="filter5_d_2164_2166" width="1.56" x="11.74" y="0.46">
   <feFlood flood-opacity="0" result="BackgroundImageFix"/>
   <feColorMatrix in="SourceAlpha" result="hardAlpha" type="matrix" values="0 0 0 0 0 0 0 0 0 0 0 0 0 0 0 0 0 0 127 0"/>
   <feOffset/>
   <feGaussianBlur stdDeviation="0.27"/>
   <feComposite in2="hardAlpha" operator="out"/>
   <feColorMatrix type="matrix" values="0 0 0 0 0.592157 0 0 0 0 0.392157 0 0 0 0 1 0 0 0 1 0"/>
   <feBlend in2="BackgroundImageFix"/>
   <feBlend in="SourceGraphic" in2="effect1_dropShadow_2164_2166"/>
  </filter>
  <filter color-interpolation-filters="sRGB" filterUnits="userSpaceOnUse" height="4.72" id="filter6_d_2164_2166" width="4.62" x="0.73" y="9.55">
   <feFlood flood-opacity="0" result="BackgroundImageFix"/>
   <feColorMatrix in="SourceAlpha" result="hardAlpha" type="matrix" values="0 0 0 0 0 0 0 0 0 0 0 0 0 0 0 0 0 0 127 0"/>
   <feOffset dy="0.28"/>
   <feGaussianBlur stdDeviation="0.54"/>
   <feComposite in2="hardAlpha" operator="out"/>
   <feColorMatrix type="matrix" values="0 0 0 0 0.220722 0 0 0 0 0.210451 0 0 0 0 0.241667 0 0 0 0.6 0"/>
   <feBlend in2="BackgroundImageFix"/>
   <feBlend in="SourceGraphic" in2="effect1_dropShadow_2164_2166"/>
  </filter>
  <filter color-interpolation-filters="sRGB" filterUnits="userSpaceOnUse" height="7.79" id="filter8_d_2164_2166" width="7.65" x="20.29" y="2.26">
   <feFlood flood-opacity="0" result="BackgroundImageFix"/>
   <feColorMatrix in="SourceAlpha" result="hardAlpha" type="matrix" values="0 0 0 0 0 0 0 0 0 0 0 0 0 0 0 0 0 0 127 0"/>
   <feOffset dy="0.55"/>
   <feGaussianBlur stdDeviation="1.07"/>
   <feComposite in2="hardAlpha" operator="out"/>
   <feColorMatrix type="matrix" values="0 0 0 0 0.296824 0 0 0 0 0.244184 0 0 0 0 0.404167 0 0 0 0.6 0"/>
   <feBlend in2="BackgroundImageFix"/>
   <feBlend in="SourceGraphic" in2="effect1_dropShadow_2164_2166"/>
  </filter>
  <linearGradient id="paint1_linear_2164_2166" x1="0.04" x2="1.01" y1="0.44" y2="0.46">
   <stop stop-color="#26A4FF"/>
   <stop offset="1" stop-color="#0D9AFF"/>
  </linearGradient>
  <linearGradient id="paint2_linear_2164_2166" x1="0.03" x2="1.02" y1="0.45" y2="0.47">
   <stop stop-color="#26A4FF"/>
   <stop offset="1" stop-color="#0D9AFF"/>
  </linearGradient>
  <linearGradient id="paint3_linear_2164_2166" x1="0.02" x2="1.02" y1="0.45" y2="0.47">
   <stop stop-color="#26A4FF"/>
   <stop offset="1" stop-color="#0D9AFF"/>
  </linearGradient>
  <linearGradient id="paint4_linear_2164_2166" x1="0.03" x2="1.02" y1="0.45" y2="0.47">
   <stop stop-color="#26A4FF"/>
   <stop offset="1" stop-color="#0D9AFF"/>
  </linearGradient>
  <linearGradient id="paint5_linear_2164_2166" x1="0.03" x2="1.04" y1="0.44" y2="0.46">
   <stop stop-color="#26A4FF"/>
   <stop offset="1" stop-color="#0D9AFF"/>
  </linearGradient>
  <linearGradient id="paint6_linear_2164_2166" x1="0.03" x2="1.02" y1="0.45" y2="0.47">
   <stop stop-color="#26A4FF"/>
   <stop offset="1" stop-color="#0D9AFF"/>
  </linearGradient>
  <linearGradient id="paint7_linear_2164_2166" x1="0.96" x2="-0.03" y1="0.38" y2="0.54">
   <stop stop-color="#26A4FF"/>
   <stop offset="1" stop-color="#0D9AFF"/>
  </linearGradient>
  <linearGradient id="paint8_linear_2164_2166" x1="0" x2="1.04" y1="0" y2="0.96">
   <stop stop-color="#868CFF"/>
   <stop offset="1" stop-color="#4318FF"/>
  </linearGradient>
  <linearGradient id="paint11_linear_2164_2166" x1="0.98" x2="-0.02" y1="0.52" y2="0.4">
   <stop stop-color="#26A4FF"/>
   <stop offset="1" stop-color="#0D9AFF"/>
  </linearGradient>
 </defs>
 <g class="layer">
  <title>Layer 1</title>
  <g filter="url(#filter0_d_2164_2166)" id="svg_2">
   <path d="m31.5,1.94c0.09,0 0.16,-0.07 0.16,-0.16c0,-0.09 -0.07,-0.16 -0.16,-0.16c-0.09,0 -0.16,0.07 -0.16,0.16c0,0.09 0.07,0.16 0.16,0.16z" fill="url(#paint1_linear_2164_2166)" id="svg_3"/>
  </g>
  <g filter="url(#filter1_d_2164_2166)" id="svg_4">
   <path d="m5.68,6.04c0.23,0 0.41,-0.19 0.41,-0.42c0,-0.24 -0.18,-0.43 -0.41,-0.43c-0.22,0 -0.4,0.19 -0.4,0.43c0,0.23 0.18,0.42 0.4,0.42z" fill="url(#paint2_linear_2164_2166)" id="svg_5"/>
  </g>
  <g filter="url(#filter2_d_2164_2166)" id="svg_6">
   <path d="m1.5,18.41c0.23,0 0.41,-0.19 0.41,-0.43c0,-0.23 -0.18,-0.42 -0.41,-0.42c-0.22,0 -0.4,0.19 -0.4,0.42c0,0.24 0.18,0.43 0.4,0.43z" fill="url(#paint3_linear_2164_2166)" id="svg_7"/>
  </g>
  <g filter="url(#filter3_d_2164_2166)" id="svg_8">
   <path d="m25.54,21.8c0.23,0 0.41,-0.19 0.41,-0.42c0,-0.23 -0.18,-0.42 -0.41,-0.42c-0.22,0 -0.4,0.19 -0.4,0.42c0,0.23 0.18,0.42 0.4,0.42z" fill="url(#paint4_linear_2164_2166)" id="svg_9"/>
  </g>
  <g filter="url(#filter4_d_2164_2166)" id="svg_10">
   <path d="m6.53,14.65c0.08,0 0.15,-0.07 0.15,-0.16c0,-0.09 -0.07,-0.16 -0.15,-0.16c-0.09,0 -0.16,0.07 -0.16,0.16c0,0.09 0.07,0.16 0.16,0.16z" fill="url(#paint5_linear_2164_2166)" id="svg_11"/>
  </g>
  <g filter="url(#filter5_d_2164_2166)" id="svg_12">
   <path d="m12.52,1.51c0.14,0 0.25,-0.11 0.25,-0.25c0,-0.15 -0.11,-0.26 -0.25,-0.26c-0.13,0 -0.24,0.11 -0.24,0.26c0,0.14 0.11,0.25 0.24,0.25z" fill="url(#paint6_linear_2164_2166)" id="svg_13"/>
  </g>
  <g filter="url(#filter6_d_2164_2166)" id="svg_14">
   <path d="m3.23,12.91c-0.08,0.01 -0.16,-0.04 -0.18,-0.13c-0.22,-0.75 -0.34,-0.84 -1.06,-0.82c-0.09,0.01 -0.16,-0.05 -0.17,-0.14c-0.02,-0.08 0.04,-0.16 0.12,-0.19c0.69,-0.21 0.76,-0.31 0.78,-1.1c0,-0.09 0.06,-0.16 0.14,-0.18c0.08,-0.01 0.15,0.04 0.18,0.13c0.22,0.75 0.33,0.84 1.06,0.81c0.08,0 0.16,0.06 0.17,0.15c0.01,0.08 -0.04,0.16 -0.12,0.19c-0.7,0.21 -0.77,0.31 -0.78,1.1c-0.01,0.09 -0.06,0.16 -0.14,0.18z" fill="url(#paint7_linear_2164_2166)" id="svg_15"/>
  </g>
  <path d="m16.63,6.19c-0.21,0.09 -0.35,0.3 -0.35,0.53c0,0.23 0.14,0.44 0.35,0.53c1.68,0.65 3.01,2.03 3.64,3.78c0.08,0.22 0.28,0.37 0.51,0.37c0.22,0 0.42,-0.15 0.5,-0.37c0.64,-1.75 1.96,-3.13 3.65,-3.78c0.21,-0.09 0.35,-0.3 0.35,-0.53c0,-0.23 -0.14,-0.44 -0.35,-0.53c-1.69,-0.65 -3.01,-2.03 -3.65,-3.78c-0.08,-0.22 -0.28,-0.37 -0.5,-0.37c-0.23,0 -0.43,0.15 -0.51,0.37c-0.63,1.75 -1.96,3.13 -3.64,3.78zm-5.74,-0.58c-0.12,-0.27 -0.39,-0.45 -0.68,-0.45c-0.29,0 -0.56,0.18 -0.68,0.45c-1.59,3.59 -4.37,6.47 -7.82,8.13c-0.26,0.13 -0.43,0.4 -0.43,0.71c0,0.31 0.17,0.58 0.43,0.71c3.45,1.66 6.23,4.54 7.82,8.13c0.12,0.27 0.39,0.45 0.68,0.45c0.29,0 0.56,-0.18 0.68,-0.45c1.59,-3.6 4.36,-6.48 7.82,-8.14c0.26,-0.12 0.43,-0.4 0.43,-0.7c0,-0.31 -0.17,-0.58 -0.43,-0.71c-3.45,-1.66 -6.22,-4.54 -7.82,-8.13zm9.38,12.4c-0.63,1.75 -1.96,3.13 -3.64,3.78c-0.21,0.09 -0.35,0.3 -0.35,0.53c0,0.23 0.14,0.44 0.35,0.53c1.68,0.65 3.01,2.03 3.64,3.78c0.08,0.22 0.28,0.37 0.51,0.37c0.22,0 0.42,-0.15 0.5,-0.37c0.64,-1.75 1.96,-3.13 3.65,-3.78c0.21,-0.09 0.35,-0.3 0.35,-0.53c0,-0.23 -0.14,-0.44 -0.35,-0.53c-1.69,-0.65 -3.01,-2.03 -3.65,-3.78c-0.08,-0.22 -0.28,-0.37 -0.5,-0.37c-0.23,0 -0.43,0.15 -0.51,0.37z" fill="url(#paint8_linear_2164_2166)" id="svg_16"/>
  <g filter="url(#filter8_d_2164_2166)" id="svg_20">
   <path d="m23.87,7.36c-0.11,-0.01 -0.19,-0.11 -0.19,-0.23c0,-1.09 -0.12,-1.26 -1.09,-1.52c-0.11,-0.04 -0.18,-0.15 -0.17,-0.26c0.02,-0.12 0.12,-0.2 0.23,-0.2c1,0 1.14,-0.1 1.46,-1.14c0.04,-0.12 0.14,-0.19 0.25,-0.17c0.11,0.02 0.19,0.11 0.19,0.24c0,1.08 0.12,1.25 1.09,1.51c0.11,0.04 0.18,0.15 0.17,0.26c-0.02,0.12 -0.11,0.2 -0.23,0.2c-1,0 -1.14,0.1 -1.46,1.14c-0.04,0.12 -0.14,0.19 -0.25,0.17z" fill="url(#paint11_linear_2164_2166)" id="svg_21"/>
  </g>
  <text fill="#7168ff" font-family="Helvetica" font-size="24" font-weight="normal" id="svg_22" stroke-width="0" text-anchor="middle" transform="matrix(1.18016 0 0 1 -4.76375 0)" x="84.08" xml:space="preserve" y="20.3">PixelForge</text>
 </g>
</svg>